<svg xmlns="http://www.w3.org/2000/svg" width="32" height="32" viewBox="0 0 32 32"><path fill-rule="evenodd" d="M 16 0 A 16 16 0 0 0 0 16 A 16 16 0 0 0 16 32 A 16 16 0 0 0 32 16 A 16 16 0 0 0 16 0 z M 15.994141 7.9960938 L 15.994141 7.9980469 C 18.412733 7.9980469 20.380862 9.924613 20.476562 12.320312 A 0.50005 0.50005 0 0 1 20.509766 12.505859 C 20.509766 14.156259 19.764377 15.58415 18.890625 16.90625 C 18.016873 18.22845 17.004319 19.470075 16.355469 20.734375 A 0.50005 0.50005 0 0 1 15.460938 20.722656 C 14.842961 19.457356 13.87984 18.216631 13.048828 16.894531 C 12.243952 15.614031 11.560158 14.23455 11.517578 12.65625 A 0.50004997 0.50004997 0 0 1 11.494141 12.496094 C 11.494139 10.016694 13.514783 7.9960938 15.994141 7.9960938 z M 15.994141 8.9960938 C 14.082668 8.9960937 12.545283 10.515316 12.501953 12.416016 A 0.50005 0.50005 0 0 1 12.509766 12.505859 C 12.509766 13.859659 13.102616 15.100281 13.896484 16.363281 C 14.548783 17.401081 15.282799 18.473937 15.919922 19.585938 C 16.591128 18.469137 17.368768 17.396369 18.056641 16.355469 C 18.870337 15.124169 19.474096 13.913269 19.503906 12.605469 A 0.50004997 0.50004997 0 0 1 19.494141 12.496094 C 19.494143 10.557194 17.933059 8.9960938 15.994141 8.9960938 z M 15.994141 10.998047 C 16.816646 10.998047 17.494141 11.675547 17.494141 12.498047 C 17.494141 13.320547 16.816646 13.998047 15.994141 13.998047 C 15.171636 13.998047 14.494141 13.320547 14.494141 12.498047 C 14.494141 11.675547 15.171636 10.998047 15.994141 10.998047 z M 15.994141 11.998047 C 15.712077 11.998047 15.494141 12.216047 15.494141 12.498047 C 15.494141 12.780147 15.712077 12.998047 15.994141 12.998047 C 16.276206 12.998047 16.494141 12.780147 16.494141 12.498047 C 16.494141 12.216047 16.276206 11.998047 15.994141 11.998047 z M 20.083984 17.226562 A 0.50005 0.50005 0 0 1 20.279297 17.263672 C 21.413951 17.723272 22.248571 18.344887 22.6875 19.117188 C 23.126429 19.889488 23.089658 20.834628 22.546875 21.611328 C 21.461316 23.164628 18.906095 23.989953 16.058594 24.001953 C 13.211069 24.014153 10.631653 23.208528 9.5 21.673828 C 8.9341724 20.906528 8.8623475 19.964194 9.2773438 19.183594 C 9.6923396 18.402894 10.508267 17.770781 11.628906 17.300781 A 0.50005 0.50005 0 1 1 12.015625 18.222656 C 11.034764 18.634056 10.417691 19.167944 10.160156 19.652344 C 9.9026219 20.136844 9.9216182 20.560578 10.304688 21.080078 C 11.070817 22.118978 13.414468 23.012953 16.052734 23.001953 C 18.690977 22.990753 21.002468 22.075163 21.726562 21.039062 C 22.088622 20.520962 22.09508 20.098228 21.818359 19.611328 C 21.541638 19.124428 20.900976 18.597059 19.904297 18.193359 A 0.50005 0.50005 0 0 1 20.083984 17.226562 z "/></svg>