<?xml version="1.0" encoding="UTF-8"?><!DOCTYPE svg PUBLIC "-//W3C//DTD SVG 1.1//EN" "http://www.w3.org/Graphics/SVG/1.1/DTD/svg11.dtd"><svg xmlns="http://www.w3.org/2000/svg" xmlns:xlink="http://www.w3.org/1999/xlink" version="1.1" id="Mail_w_x2F__circle" x="0px" y="0px" viewBox="0 0 20 20" xml:space="preserve"><path d="M10 .4C4.698.4.4 4.698.4 10s4.298 9.6 9.6 9.6 9.6-4.298 9.6-9.6S15.302.4 10 .4zM6.231 7h7.52c.399 0 .193.512-.024.643-.217.13-3.22 1.947-3.333 2.014s-.257.1-.403.1a.793.793 0 0 1-.402-.1L6.255 7.643C6.038 7.512 5.833 7 6.231 7zM14 12.5c0 .21-.252.5-.444.5H6.444C6.252 13 6 12.71 6 12.5V8.853c0-.092-.002-.211.172-.11l3.417 2.015a.69.69 0 0 0 .402.1c.146 0 .252-.011.403-.1l3.434-2.014c.174-.102.172.018.172.11V12.5z"/><metadata><rdf:RDF xmlns:rdf="http://www.w3.org/1999/02/22-rdf-syntax-ns#" xmlns:rdfs="http://www.w3.org/2000/01/rdf-schema#" xmlns:dc="http://purl.org/dc/elements/1.1/"><rdf:Description about="https://iconscout.com/legal#licenses" dc:title="mail,with,circle" dc:description="mail,with,circle" dc:publisher="Iconscout" dc:date="2017-09-14" dc:format="image/svg+xml" dc:language="en"><dc:creator><rdf:Bag><rdf:li>Daniel Bruce</rdf:li></rdf:Bag></dc:creator></rdf:Description></rdf:RDF></metadata></svg>