<svg xmlns="http://www.w3.org/2000/svg" id="Layer_1" width="48" height="48" viewBox="0 0 48 48"><path id="circle3930" fill-rule="evenodd" d="M 24 0 A 23.999998 23.999998 0 0 0 0 24 A 23.999998 23.999998 0 0 0 24 48 A 23.999998 23.999998 0 0 0 48 24 A 23.999998 23.999998 0 0 0 24 0 z M 32.177734 13.908203 C 32.305734 13.908203 32.43375 13.957187 32.53125 14.054688 L 33.945312 15.46875 C 34.141358 15.66375 34.141266 15.979828 33.947266 16.173828 L 32.886719 17.234375 C 32.979723 17.328374 33.033203 17.454891 33.033203 17.587891 C 33.033203 17.720891 32.980719 17.847406 32.886719 17.941406 L 32.533203 18.296875 L 32.886719 18.650391 C 33.471719 19.235391 33.471719 20.186484 32.886719 20.771484 L 27.9375 25.720703 C 27.8395 25.817707 27.710031 25.867188 27.582031 25.867188 C 27.454031 25.867188 27.326516 25.818703 27.228516 25.720703 C 27.033516 25.525703 27.033516 25.208672 27.228516 25.013672 L 32.179688 20.064453 C 32.374688 19.869453 32.374688 19.552422 32.179688 19.357422 L 31.824219 19.003906 L 18.746094 32.083984 C 18.719094 32.109984 18.68625 32.123578 18.65625 32.142578 C 18.64125 32.152578 18.632234 32.169734 18.615234 32.177734 L 15.787109 33.591797 C 15.715109 33.626797 15.6385 33.644531 15.5625 33.644531 C 15.4325 33.644531 15.304984 33.596 15.208984 33.5 L 14.855469 33.853516 C 14.757469 33.95052 14.628 34 14.5 34 C 14.372 34 14.244484 33.951516 14.146484 33.853516 C 13.951484 33.658516 13.951484 33.341484 14.146484 33.146484 L 14.5 32.792969 C 14.347 32.640969 14.31025 32.406844 14.40625 32.214844 L 15.822266 29.386719 C 15.830266 29.370719 15.846469 29.362656 15.855469 29.347656 C 15.874469 29.317656 15.888063 29.283812 15.914062 29.257812 L 30.056641 15.115234 C 30.251641 14.920234 30.568672 14.920234 30.763672 15.115234 L 31.824219 14.054688 C 31.921719 13.957184 32.049734 13.908203 32.177734 13.908203 z M 32.177734 15.113281 L 31.470703 15.820312 L 31.824219 16.173828 L 32.179688 16.527344 L 32.884766 15.820312 L 32.177734 15.113281 z M 30.410156 16.175781 L 27.582031 19.005859 L 29.939453 19.476562 L 31.472656 17.943359 L 31.826172 17.589844 L 30.410156 16.175781 z M 26.730469 19.855469 L 26.166016 20.419922 L 28.523438 20.890625 L 29.085938 20.326172 L 26.730469 19.855469 z M 25.316406 21.269531 L 24.751953 21.835938 L 27.109375 22.306641 L 27.673828 21.740234 L 25.316406 21.269531 z M 23.902344 22.683594 L 16.976562 29.609375 L 17.683594 30.316406 L 18.390625 31.023438 L 26.259766 23.154297 L 23.902344 22.683594 z M 16.40625 30.455078 L 15.462891 32.339844 L 15.660156 32.537109 L 17.544922 31.595703 L 16.976562 31.025391 L 16.40625 30.455078 z "/></svg>